<?xml version="1.0" encoding="utf-8"?>
<!-- Generator: Adobe Illustrator 23.0.5, SVG Export Plug-In . SVG Version: 6.00 Build 0)  -->
<svg version="1.1" id="Layer_1" xmlns="http://www.w3.org/2000/svg" xmlns:xlink="http://www.w3.org/1999/xlink" x="0px" y="0px"
	 viewBox="0 0 300 300" style="enable-background:new 0 0 300 300;" xml:space="preserve">
<g>
	<path d="M249.19,221.16v41.18c-27.45,14.97-59.15,22.46-95.09,22.46c-29.2,0-53.97-5.86-74.31-17.59
		c-20.34-11.73-36.44-27.89-48.29-48.48c-11.86-20.59-17.78-42.86-17.78-66.82c0-38.06,13.57-70.07,40.71-96.02
		c27.14-25.95,60.61-38.93,100.42-38.93c27.45,0,57.96,7.18,91.53,21.53v40.24c-30.58-17.47-60.46-26.21-89.66-26.21
		c-29.95,0-54.81,9.45-74.59,28.36c-19.78,18.9-29.67,42.58-29.67,71.03c0,28.7,9.73,52.29,29.2,70.75
		c19.47,18.47,44.36,27.7,74.69,27.7C188.04,250.36,218.99,240.63,249.19,221.16z"/>
</g>
<g>
	<path d="M229.45,85.32c0,7.65-0.32,19.14-0.96,34.47c-0.64,15.33-0.96,26.85-0.96,34.57v66.32c0,1.81-0.97,2.72-2.92,2.72
		c-1.61,0-4.04,0.07-7.3,0.2c-3.25,0.13-5.69,0.2-7.3,0.2c-1.75,0-4.36-0.13-7.85-0.4c-3.49-0.27-6.11-0.4-7.85-0.4
		c-1.21,0-2.65-1.11-4.33-3.32c-4.83-6.51-15.7-20.93-32.61-43.27c-4.63-6.24-11.67-15.43-21.14-27.57
		c-0.27-0.4-0.77-0.81-1.51-1.21c-0.54,0.47-0.81,1.21-0.81,2.21c0,7.78,0.22,19.46,0.65,35.02c0.44,15.57,0.65,27.24,0.65,35.02
		c0,2.35-0.91,3.52-2.72,3.52H97.71c-1.95,0-2.92-1.04-2.92-3.12c0-7.25,0.35-18.18,1.06-32.81c0.7-14.62,1.06-25.59,1.06-32.91
		c0-7.71-0.32-19.25-0.96-34.62c-0.64-15.36-0.96-26.87-0.96-34.52c0-1.48,1.31-2.21,3.93-2.21c3.89,0,8.69-0.27,14.39-0.81
		c1.34-0.13,3.99-0.57,7.95-1.31c3.35-0.6,6-0.91,7.95-0.91c0.81,0,2.05,1.14,3.72,3.42l37.54,51.42
		c3.35,4.63,8.42,11.41,15.2,20.33c1.68,2.08,3.12,3.12,4.33,3.12c0.87,0,1.31-2.62,1.31-7.85c0-7.04-0.39-17.64-1.16-31.8
		c-0.77-14.15-1.16-24.79-1.16-31.9c0-2.48,0.7-3.72,2.11-3.72c4.03,0,10.1-0.17,18.22-0.5c8.12-0.33,14.19-0.5,18.22-0.5
		C228.81,82.2,229.45,83.24,229.45,85.32z"/>
</g>
<g>
</g>
<g>
</g>
<g>
</g>
<g>
</g>
<g>
</g>
<g>
</g>
<g>
</g>
<g>
</g>
<g>
</g>
<g>
</g>
<g>
</g>
<g>
</g>
<g>
</g>
<g>
</g>
<g>
</g>
</svg>
